<svg width="23" height="22" viewBox="0 0 23 22" fill="none" xmlns="http://www.w3.org/2000/svg">
<path d="M11.6067 16.8801C11.3079 16.8801 11.0363 16.7288 10.8849 16.469L6.51933 9.20028C5.40561 7.34238 5.34741 5.08498 6.36411 3.16114C7.34201 1.30712 9.1581 0.131876 11.2226 0.0116361C11.4787 -0.0038787 11.7387 -0.0038787 11.9948 0.0116361C14.0592 0.131876 15.8753 1.311 16.8532 3.16502C17.8699 5.08886 17.8117 7.35014 16.698 9.20416L12.3324 16.4729C12.1772 16.7288 11.9094 16.884 11.6067 16.884V16.8801ZM11.6067 1.08604C11.4981 1.08604 11.3894 1.08604 11.2846 1.09379C9.60437 1.19076 8.122 2.15268 7.3226 3.66925C6.48441 5.25564 6.53097 7.11742 7.45066 8.64563L11.6106 15.5691L15.7706 8.64563C16.6902 7.11742 16.7368 5.25952 15.8986 3.66925C15.0992 2.15268 13.6169 1.19076 11.9366 1.09379C11.8279 1.08604 11.7231 1.08604 11.6145 1.08604H11.6067Z" fill="#4D4C4C"/>
<path d="M11.6067 7.92809C10.2175 7.92809 9.08435 6.7955 9.08435 5.40693C9.08435 4.01835 10.2175 2.88577 11.6067 2.88577C12.9959 2.88577 14.1291 4.01835 14.1291 5.40693C14.1291 6.7955 12.9959 7.92809 11.6067 7.92809ZM11.6067 3.96793C10.8151 3.96793 10.167 4.61179 10.167 5.40693C10.167 6.20206 10.8112 6.84593 11.6067 6.84593C12.4022 6.84593 13.0464 6.20206 13.0464 5.40693C13.0464 4.61179 12.4022 3.96793 11.6067 3.96793Z" fill="#4D4C4C"/>
<path d="M22.45 22H0.543379C0.353292 22 0.174842 21.9029 0.0778592 21.7462C-0.0191241 21.5894 -0.0268828 21.3952 0.0623418 21.231L3.89512 14.2762C3.98823 14.1045 4.17443 14 4.37616 14H10.1719V15.0453H4.7059L1.45114 20.9547H21.581L18.5086 15.0453H12.9962L13.4189 14H18.8422C19.0478 14 19.234 14.112 19.3271 14.2874L22.9426 21.2422C23.028 21.4027 23.0163 21.5968 22.9194 21.7499C22.8224 21.9029 22.6439 21.9963 22.4577 21.9963L22.45 22Z" fill="#4D4C4C"/>
</svg>
