<svg width="20" height="15" viewBox="0 0 20 15" fill="none" xmlns="http://www.w3.org/2000/svg">
<path d="M9.99605 3.22936L9.6577 2.91838L8.38102 1.74498C7.51632 0.950225 6.35383 0.5 5.10672 0.5C3.86037 0.5 2.70139 0.949741 1.83203 1.74533C0.966129 2.54138 0.5 3.59034 0.5 4.69726C0.5 5.80331 0.969422 6.85273 1.83637 7.64955L8.7929 14.0433C9.09065 14.317 9.48042 14.4713 9.88606 14.4964H10.004C10.4483 14.4964 10.8812 14.3429 11.2071 14.0434L18.1676 7.64592C19.0335 6.85006 19.4997 5.80132 19.5 4.69458C19.4963 3.58331 19.0299 2.53767 18.164 1.74168L9.99605 3.22936ZM9.99605 3.22936L10.3344 2.91838M9.99605 3.22936L10.3344 2.91838M10.3344 2.91838L11.615 1.74134M10.3344 2.91838L11.615 1.74134M11.615 1.74134C13.4154 0.0866256 16.3626 0.0893534 18.1639 1.74162L11.615 1.74134Z" fill="#0DDEAE" stroke="#0DDEAE"/>
</svg>
