<svg width="88" height="35" viewBox="0 0 88 35" fill="none" xmlns="http://www.w3.org/2000/svg">
<g clip-path="url(#clip0_105_856)">
<path d="M15.5495 26.6529L15.6429 17.9321H12.8554V15.347H15.5417V12.0845C15.5417 9.32814 17.4182 8.34705 19.0222 8.34705H21.8643V10.9321H20.0423C18.6018 10.9321 18.6018 12.03 18.6018 12.5595V15.2458H21.8098L21.3815 18.267H18.5551V26.6529H15.5417H15.5495Z" fill="#0066B1"/>
<path d="M17.5039 35C7.84872 35 0 27.1513 0 17.5039C0 7.85651 7.84872 0 17.5039 0C27.1591 0 35.0078 7.84872 35.0078 17.5039C35.0078 27.1591 27.1591 35.0078 17.5039 35.0078V35ZM17.5039 2.10234C9.0089 2.10234 2.10234 9.0089 2.10234 17.5039C2.10234 25.9989 9.0089 32.9054 17.5039 32.9054C25.9989 32.9054 32.9054 25.9989 32.9054 17.5039C32.9054 9.0089 25.9911 2.10234 17.5039 2.10234Z" fill="#0066B1"/>
</g>
<path fill-rule="evenodd" clip-rule="evenodd" d="M78.5825 34.688H64.8495C59.6558 34.688 55.432 30.3076 55.432 24.9212V10.6712C55.432 5.28485 59.6558 0.90448 64.8495 0.90448H78.5825C83.7762 0.90448 88 5.28485 88 10.6712V24.9212C88 30.3076 83.7762 34.688 78.5825 34.688ZM64.8495 3.04318C60.7938 3.04318 57.4942 6.46509 57.4942 10.6712V24.9212C57.4942 29.1274 60.7938 32.5493 64.8495 32.5493H78.5825C82.6382 32.5493 85.9378 29.1274 85.9378 24.9212V10.6712C85.9378 6.46509 82.6382 3.04318 78.5825 3.04318H64.8495ZM71.9985 26.7352C67.4005 26.7352 63.6579 22.8539 63.6579 18.0854C63.6579 13.3169 67.4005 9.43554 71.9985 9.43554C76.5965 9.43554 80.3391 13.3169 80.3391 18.0854C80.3391 22.8539 76.5965 26.7352 71.9985 26.7352ZM71.9985 11.5663C68.5385 11.5663 65.7201 14.4892 65.7201 18.0775C65.7201 21.6657 68.5385 24.5886 71.9985 24.5886C75.4584 24.5886 78.2768 21.6657 78.2768 18.0775C78.2768 14.4892 75.4584 11.5663 71.9985 11.5663ZM77.5361 9.15029C77.5361 10.7662 78.804 12.089 80.3698 12.089C81.9279 12.089 83.2035 10.7662 83.2035 9.15029C83.2035 7.53439 81.9279 6.21157 80.3698 6.21157C78.8117 6.21157 77.5361 7.53439 77.5361 9.15029ZM79.5984 9.14237C79.5984 8.70671 79.9421 8.34234 80.3698 8.34234C80.7899 8.34234 81.1412 8.70671 81.1412 9.14237C81.1412 9.57803 80.7899 9.9424 80.3698 9.9424C79.9497 9.9424 79.5984 9.57803 79.5984 9.14237Z" fill="#0066B1"/>
<defs>
<clipPath id="clip0_105_856">
<rect width="35" height="35" fill="white"/>
</clipPath>
</defs>
</svg>
