<svg width="22" height="23" viewBox="0 0 22 23" fill="none" xmlns="http://www.w3.org/2000/svg">
<path d="M6.11598 4.35169C5.79606 4.35169 5.5343 4.09009 5.5343 3.77036V0.581332C5.5343 0.2616 5.79606 0 6.11598 0C6.43591 0 6.69766 0.2616 6.69766 0.581332V3.77451C6.69766 4.09424 6.43591 4.35584 6.11598 4.35584V4.35169Z" fill="#4D4C4C"/>
<path d="M16.4408 4.35169C16.1209 4.35169 15.8591 4.09009 15.8591 3.77036V0.581332C15.8591 0.2616 16.1209 0 16.4408 0C16.7607 0 17.0225 0.2616 17.0225 0.581332V3.77451C17.0225 4.09424 16.7607 4.35584 16.4408 4.35584V4.35169Z" fill="#4D4C4C"/>
<path d="M21.4224 3.32189C21.4224 3.15994 21.2936 3.03122 21.1316 3.03122H0.955588C0.793548 3.03122 0.664747 3.15994 0.664747 3.32189L0.652283 6.34481H21.4058L21.4183 3.32189H21.4224Z" fill="#4D4C4C"/>
<path d="M21.9834 6.92615H0.0706177L0.0872371 3.32189C0.0872371 2.84436 0.477794 2.45404 0.959758 2.45404H21.1316C21.6136 2.45404 22.0041 2.84436 22.0041 3.32604L21.9875 6.9303L21.9834 6.92615ZM1.23398 5.76348H20.8283L20.8366 3.61255H1.24644L1.23813 5.76348H1.23398Z" fill="#4D4C4C"/>
<path d="M0.0706327 8.08466L0 22.1238C0 22.6055 0.390557 22.9958 0.872521 22.9958H21.0444C21.5263 22.9958 21.9169 22.6055 21.9169 22.128L21.9875 8.08051H0.0706327V8.08466ZM5.99131 19.0677C5.50519 19.0677 5.11048 18.6732 5.11048 18.1874C5.11048 17.7016 5.50519 17.3071 5.99131 17.3071C6.47743 17.3071 6.87214 17.7016 6.87214 18.1874C6.87214 18.6732 6.47743 19.0677 5.99131 19.0677ZM5.99131 15.4385C5.50519 15.4385 5.11048 15.044 5.11048 14.5582C5.11048 14.0724 5.50519 13.6779 5.99131 13.6779C6.47743 13.6779 6.87214 14.0724 6.87214 14.5582C6.87214 15.044 6.47743 15.4385 5.99131 15.4385ZM5.99131 11.8218C5.50519 11.8218 5.11048 11.4273 5.11048 10.9415C5.11048 10.4557 5.50519 10.0612 5.99131 10.0612C6.47743 10.0612 6.87214 10.4557 6.87214 10.9415C6.87214 11.4273 6.47743 11.8218 5.99131 11.8218ZM11.2805 19.0677C10.7943 19.0677 10.3996 18.6732 10.3996 18.1874C10.3996 17.7016 10.7943 17.3071 11.2805 17.3071C11.7666 17.3071 12.1613 17.7016 12.1613 18.1874C12.1613 18.6732 11.7666 19.0677 11.2805 19.0677ZM11.2805 15.4385C10.7943 15.4385 10.3996 15.044 10.3996 14.5582C10.3996 14.0724 10.7943 13.6779 11.2805 13.6779C11.7666 13.6779 12.1613 14.0724 12.1613 14.5582C12.1613 15.044 11.7666 15.4385 11.2805 15.4385ZM11.2805 11.8218C10.7943 11.8218 10.3996 11.4273 10.3996 10.9415C10.3996 10.4557 10.7943 10.0612 11.2805 10.0612C11.7666 10.0612 12.1613 10.4557 12.1613 10.9415C12.1613 11.4273 11.7666 11.8218 11.2805 11.8218ZM16.5696 15.4385C16.0835 15.4385 15.6888 15.044 15.6888 14.5582C15.6888 14.0724 16.0835 13.6779 16.5696 13.6779C17.0557 13.6779 17.4504 14.0724 17.4504 14.5582C17.4504 15.044 17.0557 15.4385 16.5696 15.4385ZM16.5696 11.8218C16.0835 11.8218 15.6888 11.4273 15.6888 10.9415C15.6888 10.4557 16.0835 10.0612 16.5696 10.0612C17.0557 10.0612 17.4504 10.4557 17.4504 10.9415C17.4504 11.4273 17.0557 11.8218 16.5696 11.8218Z" fill="#4D4C4C"/>
</svg>
